<svg
  width="56.188"
  height="51.846"
  viewBox="0 0 56.188 51.846"
  xmlns="http://www.w3.org/2000/svg"
>
  <defs>
    <clipPath id="clipPath3">
      <rect
        id="Rectangle_968"
        data-name="Rectangle 968"
        width="56.188"
        height="51.846"
        fill="#fff"
      />
    </clipPath>
  </defs>
  <g
    id="Group_2134"
    data-name="Group 2134"
    transform="translate(0 0)"
  >
    <g
      id="Group_2134-2"
      data-name="Group 2134"
      transform="translate(0 0)"
      clipPath="url(#clipPath3)"
    >
      <path
        id="Path_2145"
        data-name="Path 2145"
        d="M56.162,23.869A28.315,28.315,0,0,0,43.406,5.728C37.46,1.981,29.957,0,21.708,0,5.886,0,.362,9.793.135,10.21a1.085,1.085,0,0,0-.12.7A12.447,12.447,0,0,0,1.4,14.55L7.267,29.06a1.211,1.211,0,0,0,1.128.735c.047,0,4.107.006,6.1,0l5.259,9.611V50.7a1.178,1.178,0,0,0,1.21,1.142h6.452a1.178,1.178,0,0,0,1.21-1.142V33.588a31.751,31.751,0,0,0,4.791-2.905,32.1,32.1,0,0,1,3.776-2.367,40.491,40.491,0,0,1,9.7-3.062l8.088-.006a1.237,1.237,0,0,0,.939-.424,1.094,1.094,0,0,0,.243-.955M26.2,49.562H22.171V39.13a1.094,1.094,0,0,0-.135-.524l-2.737-5a10.5,10.5,0,0,0,4.69,1.051,10.943,10.943,0,0,0,2.214-.243ZM36.061,26.3a34.445,34.445,0,0,0-4.075,2.543c-2.593,1.79-5.043,3.481-7.808,3.531-3.064.056-5.235-1.143-8-4.43a1.238,1.238,0,0,0-.947-.431h-.009c-1.058.006-4.413,0-5.988,0L6.215,20.054c3.518,2.659,9.309,5.17,18.646,5.194,3.413.006,13.159.009,13.559.009-.793.311-1.589.656-2.358,1.039M24.866,22.963c-8.373-.021-14.909-2.176-18.9-6.233a13.531,13.531,0,0,1-3.472-5.8C3.563,9.3,8.94,2.286,21.708,2.286c12.743,0,27.56,5.465,31.743,20.679-1.429,0-22.612.01-28.585,0"
        transform="translate(0 -0.001)"
        fill="#fff"
      />
      <path
        id="Path_2146"
        data-name="Path 2146"
        d="M55.467,16.078c-4.882-3.076-11.146-4.7-18.116-4.7a1.144,1.144,0,1,0,0,2.285c6.49,0,12.291,1.493,16.773,4.318a20.341,20.341,0,0,1,4.818,4.183h-6.08a1.144,1.144,0,1,0,0,2.285l8.4,0a1.225,1.225,0,0,0,1.056-.586A1.087,1.087,0,0,0,62.29,22.7a22.227,22.227,0,0,0-6.824-6.623"
        transform="translate(-15.643 -5.284)"
        fill="#fff"
      />
    </g>
  </g>
</svg>