<svg
  id="Group_2890"
  data-name="Group 2890"
  width="35"
  height="35"
  viewBox="0 0 31.09 27.882"
>
  <defs>
    <clipPath id="clip-path">
      <rect
        id="Rectangle_1443"
        data-name="Rectangle 1443"
        width="31.09"
        height="27.882"
        fill="currentColor"
      />
    </clipPath>
  </defs>
  <g
    id="Group_2435"
    data-name="Group 2435"
    clipPath="url(#clipPath)"
  >
    <path
      id="Path_2250"
      data-name="Path 2250"
      d="M25.031,15.764a6.02,6.02,0,0,0-2.051.358L21.3,12.306v-.819a1.885,1.885,0,0,0,.971-1.058,1.878,1.878,0,0,0-1.122-2.407l-2.063-.751L17.551,5.586a2.8,2.8,0,1,0-2.506-1.543,2.446,2.446,0,0,0-1.608.828L9.591,9.325a1.875,1.875,0,0,0-.018,2.413l1.813,2.2L9.307,16.711a6.052,6.052,0,1,0,2.709,6.216l.967.1a1.872,1.872,0,0,0,.238.459.462.462,0,0,0,.321.795H15.8a.462.462,0,0,0,.4-.685,1.854,1.854,0,0,0,.425-1.041l.164-2.03,4.738-5.411.61,1.384a6.057,6.057,0,1,0,2.894-.737M13.8,22.33l.495-6.119a.46.46,0,0,0-.1-.332l-3.907-4.731a.951.951,0,0,1,.007-1.223l3.832-4.438a1.51,1.51,0,0,1,1.084-.529,1.1,1.1,0,0,1,.808.314l2.46,2.7a.465.465,0,0,0,.184.123l2.17.79a.953.953,0,0,1-.652,1.792L17.672,9.77a.96.96,0,0,1-.389-.266L16.127,8.216a.462.462,0,0,0-.689,0l-2.391,2.69a.459.459,0,0,0-.01.6l2.993,3.6a.948.948,0,0,1,.215.684L15.7,22.484a.958.958,0,0,1-.949.877c-.026,0-.052,0-.078,0A.955.955,0,0,1,13.8,22.33M15.784,9.219l.809.9a1.884,1.884,0,0,0,.763.519l2.507.912a1.865,1.865,0,0,0,.512.108v.346l-5.087.765L14,11.225Zm.957,5.3-.763-.917,4.578-.689.56,1.271-4.2,4.8.252-3.116a1.87,1.87,0,0,0-.425-1.348m.8-13.594a1.869,1.869,0,1,1-1.869,1.869A1.871,1.871,0,0,1,17.542.924m-6.349,20.9q0,.043,0,.086L6.915,21.45l2.575-3.441a5.133,5.133,0,0,1,1.7,3.814m-1.146-4.557,1.946-2.6,1.369,1.657-.467,5.768-.78-.084c0-.064,0-.125,0-.185a6.052,6.052,0,0,0-2.071-4.557M6.059,26.957a5.134,5.134,0,1,1,2.692-9.5l-2.622,3.5c-.025,0-.048,0-.07,0a.868.868,0,1,0,.681,1.406l4.353.467a5.128,5.128,0,0,1-5.034,4.129m18.972,0a5.133,5.133,0,0,1-2.52-9.606l1.774,4.028a.868.868,0,1,0,1.614.444.873.873,0,0,0-.789-.864L23.353,16.97a5.134,5.134,0,1,1,1.678,9.987m0-5.1a.036.036,0,1,1,.036-.036.036.036,0,0,1-.036.036"
      fill="currentColor"
    />
  </g>
</svg>