<svg
  xmlns="http://www.w3.org/2000/svg"
  width="32"
  height="32"
  viewBox="0 0 32 32"
>
  <g
    id="Group_1861"
    data-name="Group 1861"
    transform="translate(-419 -3832)"
  >
    <path
      id="Path_1983"
      data-name="Path 1983"
      d="M14.072,1.5a1.572,1.572,0,0,1,1.571,1.572v11a1.572,1.572,0,0,1-1.571,1.572h-11A1.572,1.572,0,0,1,1.5,14.072v-11A1.572,1.572,0,0,1,3.071,1.5h11m-.393,12.179V9.515a2.562,2.562,0,0,0-2.562-2.562h0A2.277,2.277,0,0,0,9.295,7.975V7.1H7.1v6.577H9.295V9.805a1.1,1.1,0,1,1,2.192,0v3.874h2.192m-9.13-7.81a1.32,1.32,0,0,0,1.32-1.32h0a1.324,1.324,0,1,0-2.648,0h0a1.325,1.325,0,0,0,1.328,1.32m1.092,7.81V7.1H3.464v6.577Z"
      transform="translate(426.428 3839.429)"
      fill="#00a8ff"
    />
    <g
      id="Rectangle_706"
      data-name="Rectangle 706"
      transform="translate(419 3832)"
      fill="none"
      stroke="#00a8ff"
      strokeLinecap="round"
      strokeLinejoin="round"
      strokeWidth="2"
    >
      <rect width="32" height="32" rx="9" stroke="none" />
      <rect
        x="1"
        y="1"
        width="30"
        height="30"
        rx="8"
        fill="none"
      />
    </g>
  </g>
</svg>