<svg width="200" height="200" viewBox="5 90 88 88" xmlns="http://www.w3.org/2000/svg">
  <defs>
    <filter
      id="Rectangle_753"
      x="0"
      y="0"
      width="88"
      height="88"
      filterUnits="userSpaceOnUse"
    >
      <feOffset dy="3" in="SourceAlpha" />
      <feGaussianBlur stdDeviation="2" result="blur" />
      <feFlood floodOpacity="0.031" />
      <feComposite operator="in" in2="blur" />
      <feComposite in="SourceGraphic" />
    </filter>
    <clipPath id="clip-path">
      <rect
        id="Rectangle_795"
        data-name="Rectangle 795"
        width="46.556"
        height="46.877"
        fill="#fff"
      />
    </clipPath>
  </defs>
  <g
    id="Group_2232"
    data-name="Group 2232"
    transform="translate(-400 -2467)"
  >
    <g id="Group_2231" data-name="Group 2231">
      <g
        transform="matrix(1, 0, 0, 1, 400, 2467)"
        filter="url(#Rectangle_753)"
      >
        <rect
          id="Rectangle_753-2"
          data-name="Rectangle 753"
          width="76"
          height="76"
          rx="17"
          transform="translate(6 3)"
          fill="#00a8ff"
        />
      </g>
    </g>
    <g
      id="Group_1760"
      data-name="Group 1760"
      transform="translate(420.723 2484.562)"
    >
      <g
        id="Group_1760-2"
        data-name="Group 1760"
        transform="translate(0 0)"
        clipPath="url(#clip-path)"
      >
        <path
          id="Path_2085"
          data-name="Path 2085"
          d="M45.487,29.933H31.751V18.664a1.069,1.069,0,0,0-1.069-1.069H28.962V14.731a.749.749,0,0,0-.749-.749H25.672V10.619a.726.726,0,0,0-.008-.081A4.24,4.24,0,0,0,27,8.76a.73.73,0,0,0,.087-.068c3.976-3.81,4.461-4.257,4.514-4.306.014-.012.027-.024.04-.037A2.061,2.061,0,0,0,30.194.822h-2.06A.746.746,0,0,0,27.391,0H19.165a.746.746,0,0,0-.743.822h-2.06a2.062,2.062,0,0,0-1.447,3.526c.013.013.027.026.04.037.054.049.538.5,4.515,4.306a.754.754,0,0,0,.083.065,4.238,4.238,0,0,0,1.339,1.782.706.706,0,0,0-.008.08v3.364H18.343a.749.749,0,0,0-.749.749v2.863H15.875a1.069,1.069,0,0,0-1.069,1.069V25H1.069A1.069,1.069,0,0,0,0,26.067V45.807a1.069,1.069,0,0,0,1.069,1.069H45.487a1.07,1.07,0,0,0,1.069-1.069V31a1.07,1.07,0,0,0-1.069-1.069M30.755,2.881a.567.567,0,0,1-.168.4l.006.006c-.3.261-1.04.964-3.134,2.969l.491-3.941h2.244a.562.562,0,0,1,.561.562m-14.954,0a.562.562,0,0,1,.561-.562h2.244l.489,3.939c-2.091-2-2.83-2.706-3.131-2.967l.006-.006a.567.567,0,0,1-.168-.4M20.012,1.5h6.531l-.746,6A2.705,2.705,0,0,1,24.03,9.749a2.4,2.4,0,0,1-1.506,0,2.7,2.7,0,0,1-1.767-2.256Zm2.369,9.765a3.848,3.848,0,0,0,1.793,0v2.721H22.382Zm-3.29,4.218h8.374v2.114H19.091ZM2.139,27.136H14.806v17.6H2.139Zm14.806-7.4H29.612v25H16.945Zm27.473,25H31.751V32.071H44.418Z"
          transform="translate(0 0)"
          fill="#fff"
        />
        <path
          id="Path_2086"
          data-name="Path 2086"
          d="M52.928,61.122a1.142,1.142,0,0,0-.64-.189.721.721,0,0,0-.39.095L50.12,62.1a.768.768,0,0,0-.39.714.952.952,0,0,0,.189.578.566.566,0,0,0,.471.255.6.6,0,0,0,.338-.108l.391-.243v6.855a.52.52,0,0,0,.31.477,1.71,1.71,0,0,0,1.481,0,.521.521,0,0,0,.31-.477V61.593a.553.553,0,0,0-.29-.471"
          transform="translate(-28.456 -34.866)"
          fill="#fff"
        />
        <path
          id="Path_2087"
          data-name="Path 2087"
          d="M18.094,80.5H14.533v-.123a1.049,1.049,0,0,1,.438-.717,9.583,9.583,0,0,1,1.055-.8q.618-.409,1.228-.9A4.533,4.533,0,0,0,18.3,76.749a2.949,2.949,0,0,0,.434-1.543,2.4,2.4,0,0,0-.95-2,3.489,3.489,0,0,0-2.21-.741,3.364,3.364,0,0,0-2.132.708,2.27,2.27,0,0,0-.906,1.884q0,1.093.932,1.093a1.234,1.234,0,0,0,.793-.238.7.7,0,0,0,.3-.56,1.01,1.01,0,0,1,.287-.8,1.076,1.076,0,0,1,.738-.252.952.952,0,0,1,1.04.969,1.515,1.515,0,0,1-.445.983,6.489,6.489,0,0,1-1.088.97l-1.239.928A5.185,5.185,0,0,0,12.806,79.2a1.957,1.957,0,0,0-.433,1.169v1.318a.548.548,0,0,0,.3.462,1.156,1.156,0,0,0,.615.19H18.1a.537.537,0,0,0,.445-.283,1.143,1.143,0,0,0,.19-.649,1.071,1.071,0,0,0-.19-.634.545.545,0,0,0-.448-.27"
          transform="translate(-7.08 -41.467)"
          fill="#fff"
        />
        <path
          id="Path_2088"
          data-name="Path 2088"
          d="M83.483,81.478a1.179,1.179,0,0,0,.769-.19.71.71,0,0,0,.214-.559.565.565,0,0,1,.24-.519,1.425,1.425,0,0,1,.745-.151.856.856,0,0,1,.985.952,1.9,1.9,0,0,1-.086.627.611.611,0,0,1-.253.344,1.057,1.057,0,0,1-.318.133,1.852,1.852,0,0,1-.379.033c-.4,0-.6.268-.6.8s.2.8.6.8a1.692,1.692,0,0,1,.952.221.956.956,0,0,1,.327.85v.255a1.293,1.293,0,0,1-.273.93,1.322,1.322,0,0,1-.953.275q-1.185,0-1.185-.776a.614.614,0,0,0-.223-.543,1.63,1.63,0,0,0-.856-.154,1.369,1.369,0,0,0-.781.161.712.712,0,0,0-.216.6,2.382,2.382,0,0,0,.8,1.754,3.312,3.312,0,0,0,2.39.778,3.827,3.827,0,0,0,2.452-.738,2.743,2.743,0,0,0,.93-2.29v-.255a1.932,1.932,0,0,0-1.361-1.968,1.6,1.6,0,0,0,.762-.824,3.177,3.177,0,0,0,.276-1.354q0-2.442-2.993-2.443a3.2,3.2,0,0,0-2.316.729,2.277,2.277,0,0,0-.745,1.668.88.88,0,0,0,.2.676,1.545,1.545,0,0,0,.9.167"
          transform="translate(-47.03 -44.768)"
          fill="#fff"
        />
      </g>
    </g>
  </g>
</svg>