<svg
  xmlns="http://www.w3.org/2000/svg"
  width="23.662"
  height="23.788"
  viewBox="0 0 23.662 23.788"
>
  <g
    id="Group_1588"
    data-name="Group 1588"
    transform="translate(-1753.881 -1310.313)"
  >
    <g id="Group_1584" data-name="Group 1584">
      <path
        id="Path_1977"
        data-name="Path 1977"
        d="M1772.207,1334.1a18.251,18.251,0,0,1-12.631-5.625l-.072-.077a18.069,18.069,0,0,1-5.619-12.96l.008-.335.207-.261a12.056,12.056,0,0,1,5.207-3.859,1.8,1.8,0,0,1,.652-.114c.539,0,1.754.276,2.061,1.126.545,1.51,1.234,3.486,1.736,5.383a2.419,2.419,0,0,1-.74,2.282l-1.768,1.122a1.367,1.367,0,0,0,.24.6,25,25,0,0,0,2.36,2.765,24.215,24.215,0,0,0,2.746,2.339.994.994,0,0,0,.553.21.314.314,0,0,0,.1-.013l1.076-1.728a2.378,2.378,0,0,1,1.854-.781,1.732,1.732,0,0,1,.389.039,25.177,25.177,0,0,1,5.494,1.772,2.387,2.387,0,0,1,.935,2.688,12.17,12.17,0,0,1-2.756,4.234,12.408,12.408,0,0,1-1.1.972l-.26.2-.668.012Zm-16.326-18.281a16.447,16.447,0,0,0,5.039,11.171l.1.1a16.243,16.243,0,0,0,11.144,5.01c.235-.2.457-.4.664-.6a10.214,10.214,0,0,0,2.3-3.544c-.012-.007-.051-.13-.094-.228a23.468,23.468,0,0,0-4.91-1.556,2.265,2.265,0,0,0-.234.049l-1,1.585a2.456,2.456,0,0,1-3.475.3,26.221,26.221,0,0,1-2.98-2.54,26.769,26.769,0,0,1-2.561-3,2.833,2.833,0,0,1-.551-2.186,1.93,1.93,0,0,1,.863-1.292l1.583-1a1.2,1.2,0,0,0,.039-.275c-.44-1.644-1.063-3.449-1.577-4.882a.9.9,0,0,0-.271-.058,10.259,10.259,0,0,0-3.479,2.289c-.2.2-.4.421-.6.661Z"
        fill="#fff"
      />
    </g>
    <g id="Group_1585" data-name="Group 1585">
      <path
        id="Path_1978"
        data-name="Path 1978"
        d="M1776.543,1322.978a1,1,0,0,1-1-1,9.676,9.676,0,0,0-9.666-9.665,1,1,0,0,1,0-2,11.679,11.679,0,0,1,11.666,11.665,1,1,0,0,1-1,1Z"
        fill="#fff"
      />
    </g>
    <g id="Group_1586" data-name="Group 1586">
      <path
        id="Path_1979"
        data-name="Path 1979"
        d="M1773.41,1322.978a1,1,0,0,1-1-1,6.541,6.541,0,0,0-6.535-6.533,1,1,0,0,1,0-2,8.545,8.545,0,0,1,8.535,8.533,1,1,0,0,1-1,1Z"
        fill="#fff"
      />
    </g>
    <g id="Group_1587" data-name="Group 1587">
      <path
        id="Path_1980"
        data-name="Path 1980"
        d="M1770.109,1322.978a1,1,0,0,1-1-1,3.237,3.237,0,0,0-3.234-3.232,1,1,0,0,1,0-2,5.239,5.239,0,0,1,5.234,5.232,1,1,0,0,1-1,1Z"
        fill="#fff"
      />
    </g>
  </g>
</svg>