<svg xmlns="http://www.w3.org/2000/svg" width="49.989" height="50.333" viewBox="0 0 49.989 50.333">
  <defs>
    <clipPath id="clipPath8">
      <rect width="49.989" height="50.333" fill="#fff"/>
    </clipPath>
  </defs>
  <g transform="translate(0 0)" clipPath="url(#clipPath8)">
    <path d="M48.841,32.139H34.091V20.04a1.148,1.148,0,0,0-1.148-1.148H31.1V15.817a.8.8,0,0,0-.8-.8H27.564V11.4a.78.78,0,0,0-.009-.087A4.552,4.552,0,0,0,28.99,9.406a.784.784,0,0,0,.094-.073c4.269-4.091,4.789-4.571,4.847-4.624.015-.012.029-.026.043-.04A2.213,2.213,0,0,0,32.42.883H30.208A.8.8,0,0,0,29.41,0H20.578a.8.8,0,0,0-.8.883H17.568a2.214,2.214,0,0,0-1.554,3.786c.014.014.028.028.043.04.058.052.577.532,4.848,4.624a.809.809,0,0,0,.089.07,4.55,4.55,0,0,0,1.438,1.914.758.758,0,0,0-.009.085v3.612H19.7a.8.8,0,0,0-.8.8v3.074H17.046A1.148,1.148,0,0,0,15.9,20.04v6.8H1.148A1.148,1.148,0,0,0,0,27.988v21.2a1.148,1.148,0,0,0,1.148,1.148H48.841a1.148,1.148,0,0,0,1.148-1.148v-15.9a1.148,1.148,0,0,0-1.148-1.148M33.023,3.094a.609.609,0,0,1-.181.435l.006.006c-.323.28-1.117,1.035-3.365,3.188l.527-4.232h2.41a.6.6,0,0,1,.6.6m-16.056,0a.6.6,0,0,1,.6-.6h2.409L20.5,6.72c-2.246-2.151-3.039-2.906-3.362-3.185l.007-.006a.609.609,0,0,1-.181-.435m4.522-1.486H28.5l-.8,6.438a2.9,2.9,0,0,1-1.9,2.422,2.581,2.581,0,0,1-1.617,0,2.9,2.9,0,0,1-1.9-2.422Zm2.544,10.485a4.132,4.132,0,0,0,1.925,0v2.922H24.032ZM20.5,16.621H29.49v2.27H20.5ZM2.3,29.137H15.9v18.9H2.3Zm15.9-7.949h13.6V48.036h-13.6Zm29.5,26.848h-13.6v-13.6h13.6Z" fill="#fff"/>
    <path d="M53.163,61.136a1.226,1.226,0,0,0-.687-.2.775.775,0,0,0-.419.1l-1.909,1.157a.825.825,0,0,0-.419.767,1.022,1.022,0,0,0,.2.621.607.607,0,0,0,.505.274.639.639,0,0,0,.362-.116l.419-.26v7.36a.558.558,0,0,0,.333.513,1.836,1.836,0,0,0,1.59,0,.56.56,0,0,0,.333-.513v-9.2a.594.594,0,0,0-.311-.506" transform="translate(-26.888 -32.945)" fill="#fff"/>
    <path d="M18.516,81.1H14.692v-.132a1.126,1.126,0,0,1,.47-.77,10.291,10.291,0,0,1,1.132-.858q.664-.44,1.319-.967a4.867,4.867,0,0,0,1.122-1.3,3.167,3.167,0,0,0,.466-1.656,2.575,2.575,0,0,0-1.02-2.144,3.747,3.747,0,0,0-2.372-.8,3.612,3.612,0,0,0-2.289.761,2.438,2.438,0,0,0-.973,2.023q0,1.174,1,1.174a1.325,1.325,0,0,0,.852-.255.751.751,0,0,0,.322-.6,1.085,1.085,0,0,1,.309-.858,1.156,1.156,0,0,1,.793-.271,1.022,1.022,0,0,1,1.117,1.04,1.626,1.626,0,0,1-.478,1.056,6.967,6.967,0,0,1-1.169,1.041l-1.331,1A5.568,5.568,0,0,0,12.838,79.7a2.1,2.1,0,0,0-.465,1.255v1.416a.588.588,0,0,0,.325.5,1.241,1.241,0,0,0,.661.2H18.52a.577.577,0,0,0,.478-.3,1.227,1.227,0,0,0,.2-.7,1.15,1.15,0,0,0-.2-.681.585.585,0,0,0-.481-.29" transform="translate(-6.69 -39.182)" fill="#fff"/>
    <path d="M83.579,81.716a1.266,1.266,0,0,0,.825-.2.763.763,0,0,0,.23-.6.607.607,0,0,1,.257-.557,1.53,1.53,0,0,1,.8-.162.919.919,0,0,1,1.057,1.022,2.045,2.045,0,0,1-.093.673.656.656,0,0,1-.272.369,1.135,1.135,0,0,1-.341.142,1.989,1.989,0,0,1-.407.035c-.427,0-.642.288-.642.863s.214.863.641.863a1.816,1.816,0,0,1,1.022.237,1.026,1.026,0,0,1,.351.912v.274a1.389,1.389,0,0,1-.294,1,1.42,1.42,0,0,1-1.023.295q-1.273,0-1.272-.833a.659.659,0,0,0-.24-.583,1.751,1.751,0,0,0-.92-.166,1.47,1.47,0,0,0-.838.173.764.764,0,0,0-.232.647A2.557,2.557,0,0,0,83.054,88a3.557,3.557,0,0,0,2.566.835,4.11,4.11,0,0,0,2.633-.792,2.945,2.945,0,0,0,1-2.458v-.274A2.075,2.075,0,0,0,87.79,83.2a1.717,1.717,0,0,0,.819-.884,3.411,3.411,0,0,0,.3-1.454q0-2.622-3.214-2.623a3.436,3.436,0,0,0-2.486.783,2.445,2.445,0,0,0-.8,1.79.945.945,0,0,0,.21.726,1.659,1.659,0,0,0,.963.18" transform="translate(-44.438 -42.3)" fill="#fff"/>
  </g>
</svg>