<svg
  xmlns="http://www.w3.org/2000/svg"
  width="32"
  height="32"
  viewBox="0 0 32 32"
>
  <g
    id="Group_1860"
    data-name="Group 1860"
    transform="translate(-375 -3832)"
  >
    <path
      id="Path_1984"
      data-name="Path 1984"
      d="M18.175,3.664a7.128,7.128,0,0,1-2.047.574,3.576,3.576,0,0,0,1.564-1.98,7.189,7.189,0,0,1-2.263.874A3.515,3.515,0,0,0,12.8,2,3.565,3.565,0,0,0,9.248,5.569a3.709,3.709,0,0,0,.092.815A10.145,10.145,0,0,1,1.985,2.657,3.555,3.555,0,0,0,3.091,7.408a3.53,3.53,0,0,1-1.622-.416v.025a3.572,3.572,0,0,0,2.862,3.5,3.516,3.516,0,0,1-1.606.058,3.561,3.561,0,0,0,3.328,2.479,7.087,7.087,0,0,1-4.434,1.531,7.257,7.257,0,0,1-.849-.05,10.1,10.1,0,0,0,5.474,1.606A10.1,10.1,0,0,0,16.4,5.985c0-.158,0-.308-.008-.466A7.131,7.131,0,0,0,18.175,3.664Z"
      transform="translate(381.527 3838.929)"
      fill="#00a8ff"
    />
    <g
      id="Rectangle_705"
      data-name="Rectangle 705"
      transform="translate(375 3832)"
      fill="none"
      stroke="#00a8ff"
      strokeLinecap="round"
      strokeLinejoin="round"
      strokeWidth="2"
    >
      <rect width="32" height="32" rx="9" stroke="none" />
      <rect
        x="1"
        y="1"
        width="30"
        height="30"
        rx="8"
        fill="none"
      />
    </g>
  </g>
</svg>