<svg viewBox="0 0 859 467" class="whatOurCustomerssayCog">
  <g
    id="Mask_Group_33"
    data-name="Mask Group 33"
    transform="translate(-1108.021 -112)"
    clipPath="url(#clip-path99999)"
  >
    <g
      id="Group_1620"
      data-name="Group 1620"
      transform="translate(1149.961 130.564)"
      opacity=".055"
    >
      <g
        id="Group_1619"
        data-name="Group 1619"
        transform="translate(0 0)"
        clipPath="url(#clip-path99999)"
      >
        <path
          id="Path_2003"
          data-name="Path 2003"
          d="M733.945,429.471a59.445,59.445,0,0,1,0-115.191,10.948,10.948,0,0,0,8.384-11.783,10.271,10.271,0,0,0-.25-2.531,452.061,452.061,0,0,0-13.556-52.212,12.4,12.4,0,0,0-14.245-7.463,58.857,58.857,0,0,1-67.8-27.8,58.268,58.268,0,0,1,9.494-71.793,10.679,10.679,0,0,0,3.624-8.685,11.914,11.914,0,0,0-2.944-8.34C645.126,110.107,632.233,97.9,618.676,85.7a11.479,11.479,0,0,0-15.6.68A61.427,61.427,0,0,1,529.849,96.55a61.9,61.9,0,0,1-29.773-52.9,58.207,58.207,0,0,1,1.971-14.159,10.9,10.9,0,0,0-.077-7.29,11.173,11.173,0,0,0-7.376-7.695A364.739,364.739,0,0,0,443.062.261,11.642,11.642,0,0,0,429.505,8.4a60.267,60.267,0,0,1-58.314,45.429A60.417,60.417,0,0,1,312.877,9.075,11.533,11.533,0,0,0,299.312.261,341.77,341.77,0,0,0,247.78,14.506c-5.707,1.9-9.046,7.368-7.781,12.515a15.314,15.314,0,0,0,.327,2.47,60.86,60.86,0,0,1,1.98,14.366A61.878,61.878,0,0,1,212.524,96.55a61.427,61.427,0,0,1-73.231-10.174,11.468,11.468,0,0,0-15.588-.68A333.8,333.8,0,0,0,85.73,123.672a11.923,11.923,0,0,0-2.952,8.34A10.7,10.7,0,0,0,86.4,140.7,58.235,58.235,0,0,1,95.9,212.49c-14.236,24.41-42.038,35.264-67.8,27.8a12.391,12.391,0,0,0-14.236,7.463C7.757,264.7,3.686,282.33.295,299.966a12.2,12.2,0,0,0-.284,2.918,10.931,10.931,0,0,0,8.418,11.4,59.8,59.8,0,0,1,44.741,57.591,59.806,59.806,0,0,1-44.741,57.6A10.941,10.941,0,0,0,.045,441.246a11.238,11.238,0,0,0,.25,2.539A453,453,0,0,0,13.86,496,12.377,12.377,0,0,0,28.1,503.451a58.864,58.864,0,0,1,67.8,27.8,58.248,58.248,0,0,1-9.494,71.8,10.677,10.677,0,0,0-3.624,8.676,11.957,11.957,0,0,0,2.952,8.349c11.525,13.557,24.41,25.762,37.975,37.967a11.477,11.477,0,0,0,15.588-.672A61.414,61.414,0,0,1,212.524,647.2a61.862,61.862,0,0,1,29.781,52.892,57.737,57.737,0,0,1-1.98,14.159,10.951,10.951,0,0,0,.077,7.29,11.2,11.2,0,0,0,7.376,7.7,365.358,365.358,0,0,0,51.532,14.236,11.638,11.638,0,0,0,13.565-8.134,60.255,60.255,0,0,1,116.629-.68,11.51,11.51,0,0,0,13.556,8.814,341.487,341.487,0,0,0,51.532-14.236c5.715-1.9,9.046-7.376,7.781-12.515a13.7,13.7,0,0,0-.327-2.479,60.349,60.349,0,0,1-1.971-14.365,59.91,59.91,0,0,1,103-42.511,11.488,11.488,0,0,0,15.6.672,335.117,335.117,0,0,0,37.975-37.967,11.949,11.949,0,0,0,2.944-8.349,10.651,10.651,0,0,0-3.624-8.676,58.28,58.28,0,0,1-9.494-71.8c14.245-24.41,42.038-35.255,67.8-27.8A12.382,12.382,0,0,0,728.522,496c6.1-16.956,10.174-34.584,13.556-52.212a11.813,11.813,0,0,0,.284-2.918,10.923,10.923,0,0,0-8.418-11.4M579.676,215.58q4.235,5.616,8.177,11.448a7.7,7.7,0,0,1-4.579,11.766L385.66,286.375a44.1,44.1,0,0,0-30.754,26.82l-20.933,53.563a3.834,3.834,0,0,1-7.144,0L319.41,347.7a19.194,19.194,0,0,1,.12-14.219l17.912-43.716A44.059,44.059,0,0,1,367.576,263.7l204.122-50.9a7.661,7.661,0,0,1,7.979,2.789M358.555,433.543l37.158-90.729a44.109,44.109,0,0,1,29.687-25.96l178.644-46.565a7.642,7.642,0,0,1,9.029,4.484q3.034,7.579,5.6,15.373a7.585,7.585,0,0,1-5.431,9.941L445.1,341.47a44.108,44.108,0,0,0-30.53,26.769l-40.05,102.453a3.836,3.836,0,0,1-7.144-.009l-8.943-22.9a19.155,19.155,0,0,1,.121-14.236m12.635-322.291a259.408,259.408,0,0,1,168.978,62.3,7.668,7.668,0,0,1-3.279,13.255L330.9,235.584a44.1,44.1,0,0,0-30.909,26.855l-3.314,8.478a3.833,3.833,0,0,1-7.144-.009l-44.181-113.53a13.728,13.728,0,0,1,6.464-17.163,259.251,259.251,0,0,1,119.374-28.964M367.18,632.466c-138.233-2.074-252-113.788-256.471-251.97a259.315,259.315,0,0,1,49.922-162.127,13.447,13.447,0,0,1,23.326,2.711L322.611,557.195a26.851,26.851,0,0,0,24.815,16.6h48.1a26.845,26.845,0,0,0,24.841-16.664l58.013-141.65a44.124,44.124,0,0,1,29.91-26.011l113.9-29.058a7.687,7.687,0,0,1,9.588,7.316c.026,1.377.034,2.763.034,4.14,0,145.274-118.858,262.78-264.631,260.594"
          transform="translate(40 0)"
        />
      </g>
    </g>
  </g>
</svg>
