<svg
  width="56.839"
  height="47.641"
  viewBox="0 0 56.839 47.641"
  xmlns="http://www.w3.org/2000/svg"
>
  <defs>
    <clipPath id="clipPath5">
      <rect
        id="Rectangle_969"
        data-name="Rectangle 969"
        width="56.839"
        height="47.641"
        fill="#fff"
      />
    </clipPath>
  </defs>
  <g
    id="Group_2137"
    data-name="Group 2137"
    clipPath="url(#clipPath5)"
  >
    <path
      id="Path_2147"
      data-name="Path 2147"
      d="M33.963,35.712a16.571,16.571,0,0,1,.943,4.439l.008.217H31.269l-.059-1.321c-.034-.383-.087-.758-.137-1.135a9.171,9.171,0,0,1-1.671.622c.047.418.088.839.113,1.266l.018.568h-6.2l-.056-2.313a9.235,9.235,0,0,1-1.807-1.069c.017.286.038.575.05.858l.062,2.524H15.112l.062-2.52c.051-1.08.131-2.168.237-3.23l.125-1.079.412.04c.817.051,1.743.069,2.751.042a9.15,9.15,0,0,1-.633-1.734l-.215,0c-.585,0-1.175-.019-1.8-.057l-.278-.025.015-.108c.141-.913.307-1.762.493-2.524a14.211,14.211,0,0,1,1.224-3.522c.377-.677.656-.854.734-.89l.116-.031.074.015a1.353,1.353,0,0,1,.459.433A9.3,9.3,0,0,1,20.429,23.1a18.352,18.352,0,0,0-2.084-.122L17.406,23a18.278,18.278,0,0,0-12.34,5.677l-.136.154-.132.057-.04.024a.948.948,0,0,0-.248.278l-.08.217-.478.552A18.141,18.141,0,0,0,0,41.325,18.332,18.332,0,0,0,17.411,59.65l.933.024h0A18.338,18.338,0,0,0,35.168,34a9.278,9.278,0,0,1-1.205,1.707m-10.941,12.5c.105-1.057.188-2.177.246-3.334l.065-2.774h6.2l-.022.75a22.014,22.014,0,0,1-1.487,6.858l-.306.7-.756-.289a24.9,24.9,0,0,0-3.411-.9l-.637-.1Zm-1.436-6.108-.069,2.7c-.049,1.068-.128,2.154-.234,3.227l-.1.844-1.367-.127c-.61-.043-1.255-.064-1.97-.064-.624,0-1.263.018-1.91.052l-.444.046-.085-.75c-.106-1.058-.186-2.145-.238-3.225l-.066-2.705Zm-5.809-16.93a17.281,17.281,0,0,0-1.2,3.593c-.183.752-.354,1.619-.523,2.653l-.027.206-1.395-.216a23.35,23.35,0,0,1-2.894-.723l.028-.055a11.744,11.744,0,0,1,6.008-5.458m-2.1,9.261c-.11,1.064-.191,2.185-.243,3.335l-.062,2.593H7.162l.018-.569a22.039,22.039,0,0,1,1.49-6.864l.289-.66L9,32.288a25.193,25.193,0,0,0,3.326.847l1.474.225Zm.086,14.528-1.445.222a25.621,25.621,0,0,0-3.328.845l-.146.055-.169-.38a22.214,22.214,0,0,1-1.495-6.852l-.024-.749h6.21l.068,2.778c.051,1.135.132,2.256.243,3.333ZM6.9,29.315a16.494,16.494,0,0,1,3.531-2.579l.045-.022a16.158,16.158,0,0,0-1.823,2.4l-.544.986c-.436-.182-.849-.373-1.223-.566l-.126-.071ZM1.792,40.156a16.43,16.43,0,0,1,3.617-9.222l.136-.151.536.306c.451.224.849.408,1.261.582l-.448,1.036a24.315,24.315,0,0,0-1.41,6.345l-.056,1.316-3.638,0H1.783ZM5.35,51.65a16.466,16.466,0,0,1-3.558-9.144l-.016-.4,3.642.008.066,1.5a24.148,24.148,0,0,0,1.422,6.337l.332.764-1.165.535Zm5.09,4.274A16.511,16.511,0,0,1,6.908,53.35l-.348-.378.315-.178,1.1-.5.7,1.247a15.968,15.968,0,0,0,1.845,2.427Zm-.658-3.916-.174-.334a24.477,24.477,0,0,1,3.022-.767l1.352-.208.075.538c.167,1.02.338,1.887.522,2.647a17.432,17.432,0,0,0,1.2,3.588,11.83,11.83,0,0,1-6-5.464M20.42,53.481A14.461,14.461,0,0,1,19.193,57a2.1,2.1,0,0,1-.734.9l-.112.029-.082-.019c-.1-.046-.383-.225-.761-.907a13.938,13.938,0,0,1-1.223-3.516c-.185-.768-.351-1.617-.493-2.522l-.063-.438.322-.029c.574-.038,1.181-.057,1.8-.057.666,0,1.275.02,1.86.06l1.249.115-.053.347c-.137.881-.3,1.731-.486,2.524m.493,4a17.449,17.449,0,0,0,1.206-3.6c.187-.8.362-1.69.52-2.652l.05-.38.549.088a23.308,23.308,0,0,1,3.15.831l.553.213-.014.03a11.733,11.733,0,0,1-6.013,5.466m5.356-1.559-.057.027a16.057,16.057,0,0,0,1.828-2.4l.49-.881.568.271.7.416a16.634,16.634,0,0,1-3.523,2.572M34.906,42.5a16.488,16.488,0,0,1-3.615,9.222L31,52.038,29.928,51.4l-.622-.3L29.8,49.95a24.217,24.217,0,0,0,1.41-6.345l.068-1.5H34.92Z"
      transform="translate(0 -12.034)"
      fill="#fff"
    />
    <path
      id="Path_2148"
      data-name="Path 2148"
      d="M72.022,10.038a7.133,7.133,0,0,0-2.8.57l-.055.026L68.29,6.321l1.14-.314a.847.847,0,0,0,.546-.459l.844-1.767a.861.861,0,0,0-.355-1.12L65.9.107a.86.86,0,0,0-.658-.072.84.84,0,0,0-.506.406.857.857,0,0,0,.33,1.168l2.542,1.423-2.34-.785a.856.856,0,0,0-.658.047.845.845,0,0,0-.428.49.864.864,0,0,0,.536,1.09l2.7.908-.354.1a.858.858,0,0,0-.614,1l.221,1.079L57.244,8.986,56.627,6.8l.026,0A6.51,6.51,0,0,0,58.2,6.607a.859.859,0,0,0-.416-1.667,4.437,4.437,0,0,1-2.467-.069,8.325,8.325,0,0,1-2.347-1.234.839.839,0,0,0-.639-.145.857.857,0,0,0-.352,1.544A9.928,9.928,0,0,0,54.761,6.5l.545,1.939-1.912,2.515-.066-.041a7.187,7.187,0,1,0,3.437,8.446l.042-.162,1.393.191L60.6,21.9l-.4.452a.862.862,0,0,0,.616,1.428.86.86,0,0,0,.671-.289l1.873-2.121a.859.859,0,1,0-1.287-1.137l-.334.378-1.618-1.7L67.5,11.039l.089.43a.748.748,0,0,0,.033.121l-.678.557a7.181,7.181,0,1,0,5.078-2.109m-3.431-6.41c-.012-.023-.024-.046-.037-.068l.374.21-.329.686-.056.015a.9.9,0,0,0,.091-.187.852.852,0,0,0-.043-.656M54.942,19.353a5.469,5.469,0,1,1-5.041-7.6,5.363,5.363,0,0,1,2.113.427l.317.172-3.393,4.473A.859.859,0,0,0,49.5,18.2l5.562.755Zm.424-2.087-4.174-.57,2.548-3.361.028.023a5.438,5.438,0,0,1,1.6,3.848Zm1.8-1.463a.84.84,0,0,0-.267-.181l-.137-.535a7.242,7.242,0,0,0-1.8-2.952l-.194-.16L55.891,10.5l1.583,5.622Zm2.346,1.237-1.8-6.4,9.3-2,.07.343Zm12.509,5.653a5.471,5.471,0,0,1-3.88-9.322l.3-.244.373.686-.293.234a5.29,5.29,0,0,0-1.183,1.708.856.856,0,0,0,.441,1.131.979.979,0,0,0,.329.075.868.868,0,0,0,.8-.515,3.581,3.581,0,0,1,.74-1.1l1.5,2.77a.867.867,0,0,0,.72.449.8.8,0,0,0,.118-.006.879.879,0,0,0,.322-.1.858.858,0,0,0,.348-1.162L71.084,14.41a.869.869,0,0,0,.3-1.038.858.858,0,0,0-.475-.461.843.843,0,0,0-.633,0l-.389-.72.009,0a5.4,5.4,0,0,1,2.128-.434,5.469,5.469,0,1,1,0,10.937"
      transform="translate(-22.369 0)"
      fill="#fff"
    />
    <path
      id="Path_2149"
      data-name="Path 2149"
      d="M52.052,27.818a.848.848,0,0,0-.006-.662.839.839,0,0,0-.457-.459.857.857,0,0,0-.662,0A5.367,5.367,0,0,0,48,29.534a.867.867,0,0,0,.767,1.205h.024a.845.845,0,0,0,.781-.515,3.666,3.666,0,0,1,2.019-1.946.836.836,0,0,0,.461-.462"
      transform="translate(-25.096 -13.945)"
      fill="#fff"
    />
  </g>
</svg>