<svg
  xmlns="http://www.w3.org/2000/svg"
  width="32"
  height="32"
  viewBox="0 0 32 32"
>
  <g
    id="Group_1862"
    data-name="Group 1862"
    transform="translate(-463 -3832)"
  >
    <path
      id="Path_1982"
      data-name="Path 1982"
      d="M17.351,5.676a3.291,3.291,0,0,0-.6-1.51,2.2,2.2,0,0,0-1.51-.654C13.123,3.36,9.951,3.36,9.951,3.36s-3.172,0-5.286.151a2.2,2.2,0,0,0-1.51.654,3.291,3.291,0,0,0-.6,1.51A22.327,22.327,0,0,0,2.4,8.092V9.2a23.9,23.9,0,0,0,.151,2.467,3.291,3.291,0,0,0,.6,1.51,2.43,2.43,0,0,0,1.661.654c1.208.05,5.135.1,5.135.1s3.172,0,5.286-.151a2.2,2.2,0,0,0,1.51-.654,3.291,3.291,0,0,0,.6-1.51A22.327,22.327,0,0,0,17.5,9.2V8.092A22.327,22.327,0,0,0,17.351,5.676ZM8.391,10.609V6.38l4.078,2.114Z"
      transform="translate(469.049 3839.354)"
      fill="#00a8ff"
    />
    <g
      id="Rectangle_707"
      transform="translate(463 3832)"
      fill="none"
      stroke="#00a8ff"
      strokeLinecap="round"
      strokeLinejoin="round"
      strokeWidth="2"
    >
      <rect width="32" height="32" rx="9" stroke="none" />
      <rect
        x="1"
        y="1"
        width="30"
        height="30"
        rx="8"
        fill="none"
      />
    </g>
  </g>
</svg>
